<svg xmlns="http://www.w3.org/2000/svg" xmlns:osb="http://www.openswatchbook.org/uri/2009/osb" xmlns:svg="http://www.w3.org/2000/svg" id="svg7384" width="16" height="16" version="1.1" viewBox="0 0 16 16"><metadata id="metadata90"/><title id="title9167">Gnome Symbolic Icon Theme</title><defs id="defs7386"><linearGradient id="linearGradient7212" osb:paint="solid"><stop style="stop-color:#000;stop-opacity:1" id="stop7214" offset="0"/></linearGradient></defs><g id="layer11" transform="translate(-140,-544)"><path id="rect33604" d="m 152.00219,547 c 0.55279,0 0.99781,0.44502 0.99781,0.99781 v 0.004 c 0,0.55279 -0.44502,0.99781 -0.99781,0.99781 h -10.00438 c -0.55279,0 -0.99781,-0.44502 -0.99781,-0.99781 v -0.98838 z" style="opacity:1;vector-effect:none;fill:#2e3436;fill-opacity:1;stroke:none;stroke-width:1;stroke-linecap:butt;stroke-linejoin:miter;stroke-miterlimit:4;stroke-dasharray:none;stroke-dashoffset:0;stroke-opacity:1;marker:none"/><path id="rect33608" d="m 143.99781,545 h 0.004 c 0.55279,0 0.99782,0.44502 0.99782,0.99781 v 10.00438 c 0,0.55279 -0.44503,0.99781 -0.99782,0.99781 h -0.004 C 143.44502,557 143,556.55498 143,556.00219 v -10.97313 c 0,0 0.44502,-0.0291 0.99781,-0.0291 z" style="opacity:1;vector-effect:none;fill:#2e3436;fill-opacity:1;stroke:none;stroke-width:1;stroke-linecap:butt;stroke-linejoin:miter;stroke-miterlimit:4;stroke-dasharray:none;stroke-dashoffset:0;stroke-opacity:1;marker:none"/><path id="path7845" d="m 143.99781,556.99996 c -0.55279,0 -0.99781,-0.44502 -0.99781,-0.99781 v -0.004 c 0,-0.55279 0.44502,-0.99781 0.99781,-0.99781 h 10.00438 c 0.55279,0 0.99781,0.44502 0.99781,0.99781 v 0.98838 z" style="opacity:1;vector-effect:none;fill:#2e3436;fill-opacity:1;stroke:none;stroke-width:1;stroke-linecap:butt;stroke-linejoin:miter;stroke-miterlimit:4;stroke-dasharray:none;stroke-dashoffset:0;stroke-opacity:1;marker:none"/><path id="path7847" d="m 152.00219,558.99996 h -0.004 c -0.55279,0 -0.99782,-0.44502 -0.99782,-0.99781 v -10.00438 c 0,-0.55279 0.44503,-0.99781 0.99782,-0.99781 h 0.004 c 0.55279,0 0.99781,0.44502 0.99781,0.99781 v 10.97313 c 0,0 -0.44502,0.0291 -0.99781,0.0291 z" style="opacity:1;vector-effect:none;fill:#2e3436;fill-opacity:1;stroke:none;stroke-width:1;stroke-linecap:butt;stroke-linejoin:miter;stroke-miterlimit:4;stroke-dasharray:none;stroke-dashoffset:0;stroke-opacity:1;marker:none"/></g></svg>